<?xml version="1.0" encoding="utf-8"?>
<!-- Svg Vector Icons : http://www.onlinewebfonts.com/icon -->
<!DOCTYPE svg PUBLIC "-//W3C//DTD SVG 1.1//EN" "http://www.w3.org/Graphics/SVG/1.1/DTD/svg11.dtd">
<svg version="1.1" xmlns="http://www.w3.org/2000/svg" xmlns:xlink="http://www.w3.org/1999/xlink" x="0px" y="0px" viewBox="0 0 1000 1000" enable-background="new 0 0 1000 1000" xml:space="preserve">
<metadata> Svg Vector Icons : http://www.onlinewebfonts.com/icon </metadata>
<g><g transform="translate(0.000000,511.000000) scale(0.100000,-0.100000)"><path d="M555.4,4904.3c-91.1-49.4-166.5-111.9-218.6-184.8L258.7,4605V2307.3V9.5L336.8-105c52-72.9,127.5-135.3,218.6-182.2L698.5-360h1803.4h1803.3v-351.3v-351.3h-624.5h-624.5v-208.2V-1479h2016.7h2016.7v208.2v208.2h-624.5h-624.5v351.3V-360h1790.4c1165.8,0,1821.6,10.4,1886.6,28.6c122.3,33.8,265.4,156.1,333.1,286.2c46.9,96.3,49.5,174.4,49.5,2352.4c0,2178.1-2.6,2256.1-49.5,2352.4c-67.6,130.1-210.8,252.4-333.1,286.2c-67.6,20.8-1496.3,28.6-4460.2,28.6H698.5L555.4,4904.3z M9434.2,4532.2c49.5-26,49.5-80.7,49.5-2224.9c0-2144.2,0-2198.9-49.5-2224.9c-33.8-18.2-1441.6-26-4363.9-26c-3976.2,0-4317.1,2.6-4361.3,44.2c-44.2,39-46.8,143.1-46.8,2201.5c0,1975.1,2.6,2165.1,44.2,2209.3c39,44.2,210.8,46.8,4358.7,46.8C7992.6,4558.2,9400.4,4550.4,9434.2,4532.2z M5424.2-711.3v-351.3h-351.3h-351.3v351.3V-360h351.3h351.3V-711.3z"/><path d="M8401.1-1450.4c-234.2-106.7-400.8-330.5-400.8-541.3c0-153.5,150.9-1121.6,195.2-1256.9c78.1-226.4,260.2-408.6,468.4-465.8c153.5-41.6,528.3-36.4,689.6,13c249.8,72.9,468.4,346.1,468.4,582.9c0,169.2-179.6,1194.4-226.4,1303.7c-72.9,161.3-195.2,294.1-333.1,359.1C9101.1-1380.1,8565.1-1377.5,8401.1-1450.4z M8677-1822.5c15.6-62.4,41.6-156.1,54.6-213.4c15.6-54.6,23.4-101.5,18.2-106.7c-5.2-2.6-98.9-13-208.2-20.8l-200.4-13l-15.6,98.9c-20.8,127.5,36.4,231.6,166.6,309.7C8624.9-1692.4,8645.7-1697.6,8677-1822.5z M9181.8-1791.2c88.5-80.7,184.7-268,158.7-314.9c-10.4-13-96.3-23.4-192.6-23.4h-179.5l-52,208.2l-52,208.2h114.5C9067.3-1713.2,9111.6-1728.8,9181.8-1791.2z M9392.6-2395c7.8-46.8,36.4-231.6,65-411.1c57.3-377.3,41.6-447.6-117.1-546.5c-80.7-49.5-132.7-59.8-351.3-62.5c-299.3-2.6-366.9,28.6-460.6,221.2c-46.9,93.7-122.3,489.2-145.7,765.1c-5.2,49.5,18.2,54.6,437.1,80.7c244.6,15.6,468.4,28.6,499.7,31.2C9366.5-2311.7,9379.5-2329.9,9392.6-2395z"/><path d="M685.5-1861.5c0-13-132.7-663.6-291.4-1452L100-4744.8l2024.5-7.8c1113.8-2.6,2935.3-2.6,4049.1,0l2021.9,7.8l-291.4,1431.2c-161.4,788.5-291.5,1439-291.5,1452C7610-1838.1,688.1-1838.1,685.5-1861.5z M7284.8-2316.9c23.4-106.7,403.3-1990.7,403.3-2008.9c0-7.8-1592.5-15.6-3539-15.6c-1946.5,0-3539,10.4-3539,20.8c0,18.2,374.7,1873.6,403.3,2003.7l13,57.3h3122.7h3122.7L7284.8-2316.9z"/><path d="M1286.6-2884.2v-208.2h169.1h171.7l-7.8,203l-7.8,200.4l-161.3,7.8l-163.9,7.8V-2884.2z"/><path d="M1963.2-2884.2v-208.2h169.1h171.7l-7.8,203l-7.8,200.4l-161.3,7.8l-163.9,7.8V-2884.2z"/><path d="M2639.8-2884.2v-208.2h153.5h150.9l15.6,150.9c26,244.6,13,265.4-166.5,265.4h-153.5V-2884.2z"/><path d="M3316.4-2884.2v-208.2h156.1h156.1v208.2v208.2h-156.1h-156.1V-2884.2z"/><path d="M3992.9-2884.2v-208.2h156.1h156.1v208.2v208.2h-156.1h-156.1V-2884.2z"/><path d="M4669.5-2884.2v-208.2h156.1h156.1v208.2v208.2h-156.1h-156.1V-2884.2z"/><path d="M5338.3-2694.2c-10.4-7.8-18.3-101.5-18.3-208.2v-190h169.2h169.1v208.2v208.2h-150.9C5424.2-2676,5346.1-2683.8,5338.3-2694.2z"/><path d="M6014.9-2694.2c-10.4-7.8-18.3-101.5-18.3-208.2v-190h169.2h169.1v208.2v208.2H6184C6100.7-2676,6022.7-2683.8,6014.9-2694.2z"/><path d="M6691.5-2694.2c-10.4-7.8-18.2-101.5-18.2-208.2v-190h169.2h169.1v208.2v208.2h-150.9C6777.3-2676,6699.3-2683.8,6691.5-2694.2z"/><path d="M1286.6-3716.9v-208.2h169.1h171.7l-7.8,203l-7.8,200.4l-161.3,7.8l-163.9,7.8V-3716.9z"/><path d="M1963.2-3716.9v-208.2h169.1h171.7l-7.8,203l-7.8,200.4l-161.3,7.8l-163.9,7.8V-3716.9z"/><path d="M2639.8-3716.9v-208.2h171.8h174.3l-18.2,98.9c-7.8,52.1-15.6,145.7-15.6,208.2v109.3h-156.1h-156.1V-3716.9z"/><path d="M3316.4-3716.9v-208.2h832.7h832.7v208.2v208.2h-832.7h-832.7V-3716.9z"/><path d="M5338.3-3527c-10.4-7.8-18.3-101.5-18.3-208.2v-190h169.2h169.1v208.2v208.2h-150.9C5424.2-3508.7,5346.1-3516.5,5338.3-3527z"/><path d="M6014.9-3527c-10.4-7.8-18.3-101.5-18.3-208.2v-190h169.2h169.1v208.2v208.2H6184C6100.7-3508.7,6022.7-3516.5,6014.9-3527z"/><path d="M6691.5-3527c-10.4-7.8-18.2-101.5-18.2-208.2v-190h169.2h169.1v208.2v208.2h-150.9C6777.3-3508.7,6699.3-3516.5,6691.5-3527z"/></g></g>
</svg>