<?xml version="1.0" encoding="utf-8"?>
<!-- Svg Vector Icons : http://www.onlinewebfonts.com/icon -->
<!DOCTYPE svg PUBLIC "-//W3C//DTD SVG 1.1//EN" "http://www.w3.org/Graphics/SVG/1.1/DTD/svg11.dtd">
<svg version="1.1" xmlns="http://www.w3.org/2000/svg" xmlns:xlink="http://www.w3.org/1999/xlink" x="0px" y="0px" viewBox="0 0 1000 1000" enable-background="new 0 0 1000 1000" xml:space="preserve">
<metadata> Svg Vector Icons : http://www.onlinewebfonts.com/icon </metadata>
<g><path d="M946.6,509.2c-10.8-16-33.4-35.4-79.7-35.4h-54c0.9-34.3-1.4-56.9-1.4-56.9H62.8c0,0-15.4,143.7,48.6,256.6c40.3,70.3,64.6,90.5,99.1,125.4c58,58.3,127.7,58.3,127.7,58.3h196.5c0,0,69.7,0,126.8-56.5c13.2-13.4,25.4-24.6,37.4-37.7C896.1,752,946.1,614.3,952.1,596.1C955.8,586,969.5,543.5,946.6,509.2L946.6,509.2z M889.5,572.3l-1.1,3.4c-0.3,0.9-24.9,82.8-133.4,111.4c2.6-4.3,5.1-8.9,8-13.7c24.3-43.2,37.1-90.5,43.7-132.8h60.3c16,0,22.9,3.7,24.3,5.7C894.4,550.9,892.6,564,889.5,572.3L889.5,572.3z M830.6,906.3H45.4c-47.2,51.1,261,83.7,261,83.7h263.1C569.5,990,868.6,958.6,830.6,906.3 M507,355.8c0.8,2.9-8.6,6.3-11.7,5.1c-94.5-59.4-71.7-142.3-10-202.8c47.1-46,82.3-69.1,82.5-142c-0.3-6.6,14-7.4,16.3-4.6C700.4,176.4,439.9,184.9,507,355.8 M336.4,355.8c1.1,2.9-8.3,6.3-11.4,5.1c-94.6-59.4-72-142.3-10-202.8c46.9-46,82-69.1,82.3-142c0-6.6,14.3-7.4,16.6-4.6C530.1,176.4,269.3,184.9,336.4,355.8"/></g>
</svg>