<?xml version="1.0" encoding="utf-8"?>
<!-- Svg Vector Icons : http://www.onlinewebfonts.com/icon -->
<!DOCTYPE svg PUBLIC "-//W3C//DTD SVG 1.1//EN" "http://www.w3.org/Graphics/SVG/1.1/DTD/svg11.dtd">
<svg version="1.1" xmlns="http://www.w3.org/2000/svg" xmlns:xlink="http://www.w3.org/1999/xlink" x="0px" y="0px" viewBox="0 0 1000 1000" enable-background="new 0 0 1000 1000" xml:space="preserve">
<metadata> Svg Vector Icons : http://www.onlinewebfonts.com/icon </metadata>
<g><path d="M81,926.1c0,15.7,12.7,28.4,28.4,28.4h355.1c15.7,0,28.4-12.7,28.4-28.4v-147c64.7,61.5,150.4,135.2,212.3,159.8c25,10.4,51.5,15.6,78.8,15.6c27.3,0,53.8-5.3,78.8-15.6c25.1-10.4,47.5-25.4,66.8-44.7c19.2-19.2,34.3-41.7,44.7-66.8c10.4-25,15.6-51.5,15.6-78.8c0-27.3-5.3-53.8-15.5-78.4c-60.3-152-419.1-547.8-573.2-609c-25-10.4-51.5-15.6-78.8-15.6c-27.3,0-53.8,5.3-78.8,15.6c-25.1,10.4-47.5,25.4-66.8,44.7c-19.3,19.3-34.3,41.7-44.7,66.8c-10.4,25-15.6,51.5-15.6,78.8s5.3,53.8,15.5,78.4c14.2,35.7,42.8,80.5,71.2,120.4c-52.6,5.1-98.6,15-131.9,28.9c-12.1,5-22.9,12.3-32.2,21.6c-9.3,9.3-16.6,20.1-21.6,32.2c-5,12.1-7.6,24.9-7.6,38c0,13.2,2.5,26,7.5,38.1c5,12.1,12.3,23,21.6,32.2c9.3,9.3,20.1,16.5,32.2,21.6c3.2,1.3,6.4,2.5,9.7,3.4L81,926.1L81,926.1z M184.6,308.5c-7.5-18.1-11.3-37.3-11.3-57.1s3.8-39,11.3-57.1c7.5-18.1,18.4-34.4,32.4-48.4c13.9-13.9,30.2-24.8,48.4-32.4c18.1-7.5,37.3-11.3,57.1-11.3c19.8,0,39,3.8,57.5,11.5c33.2,13.2,78.5,45.4,128.9,88.6l-64.5,64.5c-11.1,11.1-11.1,29.1,0,40.2c5.5,5.5,12.8,8.3,20.1,8.3c7.3,0,14.5-2.8,20.1-8.3l66.8-66.8c33.5,30.9,68.2,65.3,102.5,101.2l-67.4,67.4c-11.1,11.1-11.1,29.1,0,40.2c5.5,5.5,12.8,8.3,20.1,8.3c7.3,0,14.5-2.8,20.1-8.3l66.1-66.1c33.2,36.3,65.3,73.3,94.6,109.1l-58.8,58.8c-11.1,11.1-11.1,29.1,0,40.2c5.5,5.5,12.8,8.3,20.1,8.3s14.5-2.8,20.1-8.3l54.2-54.2c47.9,62.1,84.3,117.4,99,154.6c7.5,18.1,11.3,37.3,11.3,57.1c0,19.8-3.8,39-11.3,57.1c-7.5,18.2-18.4,34.4-32.4,48.4c-14,14-30.2,24.8-48.4,32.4c-18.1,7.5-37.3,11.3-57.1,11.3c-19.8,0-39-3.8-57.5-11.5c-49.8-19.7-134.6-87.5-233.7-186.5v-33.4c3.3-1,6.5-2.1,9.7-3.4c12.1-5,22.9-12.3,32.2-21.5c9.3-9.3,16.6-20.2,21.6-32.3c5-12.1,7.6-24.9,7.6-38.1c0-13.2-2.5-25.9-7.5-38.1c-5-12.1-12.3-22.9-21.6-32.2c-9.3-9.3-20.1-16.5-32.2-21.6c-50.1-20.9-128.7-32.9-215.6-32.9c-5.4,0-10.8,0-16.1,0.1C227.7,389,197.3,340.5,184.6,308.5z M79.3,601.1c-4-4-7.1-8.6-9.3-13.8c-2.1-5.2-3.2-10.7-3.2-16.3c0-5.7,1.1-11.1,3.2-16.3c2.1-5.2,5.3-9.8,9.3-13.8c4-4,8.6-7.1,13.9-9.3c37.5-15.6,97.6-25.7,164.7-28c0,0,0.1,0,0.1,0c9.6-0.3,19.3-0.5,29-0.5c78.5,0,151,10.7,193.8,28.5c5.2,2.2,9.9,5.3,13.9,9.3c4,4,7.1,8.7,9.3,13.8c2.1,5.2,3.2,10.7,3.2,16.3c0,5.7-1.1,11.2-3.2,16.3c-2.1,5.2-5.3,9.8-9.3,13.8c-4,4-8.6,7.1-13.8,9.3c-5.2,2.1-10.6,3.2-16.3,3.2c-15.7,0-28.4,12.7-28.4,28.4v69.5v186.2H137.8V642c0-15.7-12.7-28.4-28.4-28.4c-5.7,0-11.1-1.1-16.3-3.2C87.9,608.3,83.3,605.2,79.3,601.1z"/></g>
</svg>